<mxfile host="app.diagrams.net" modified="2022-06-09T03:56:00.519Z" agent="5.0 (Macintosh; Intel Mac OS X 10_15_7) AppleWebKit/605.1.15 (KHTML, like Gecko) Version/15.4 Safari/605.1.15" etag="eKIMm1lZcN5teW9ZG6lE" version="19.0.3" type="github">
  <diagram id="R2lEEEUBdFMjLlhIrx00" name="Page-1">
    <mxGraphModel dx="513" dy="375" grid="1" gridSize="10" guides="1" tooltips="1" connect="1" arrows="1" fold="1" page="1" pageScale="1" pageWidth="850" pageHeight="1100" math="0" shadow="0" extFonts="Permanent Marker^https://fonts.googleapis.com/css?family=Permanent+Marker">
      <root>
        <mxCell id="0" />
        <mxCell id="1" parent="0" />
        <mxCell id="bttaewJcuUnb8oC3wjJb-2" value="Users" style="whiteSpace=wrap;html=1;align=center;" parent="1" vertex="1">
          <mxGeometry x="98" y="93" width="70" height="30" as="geometry" />
        </mxCell>
        <mxCell id="bttaewJcuUnb8oC3wjJb-3" value="userID" style="ellipse;whiteSpace=wrap;html=1;align=center;fontStyle=4;" parent="1" vertex="1">
          <mxGeometry x="5" y="120" width="65" height="30" as="geometry" />
        </mxCell>
        <mxCell id="bttaewJcuUnb8oC3wjJb-4" value="firstname" style="ellipse;whiteSpace=wrap;html=1;align=center;" parent="1" vertex="1">
          <mxGeometry x="5" y="84" width="65" height="30" as="geometry" />
        </mxCell>
        <mxCell id="bttaewJcuUnb8oC3wjJb-11" value="lastname" style="ellipse;whiteSpace=wrap;html=1;align=center;" parent="1" vertex="1">
          <mxGeometry x="5" y="48" width="65" height="30" as="geometry" />
        </mxCell>
        <mxCell id="bttaewJcuUnb8oC3wjJb-12" value="email" style="ellipse;whiteSpace=wrap;html=1;align=center;" parent="1" vertex="1">
          <mxGeometry x="11" y="14" width="64" height="30" as="geometry" />
        </mxCell>
        <mxCell id="bttaewJcuUnb8oC3wjJb-15" value="dateofbirth" style="ellipse;whiteSpace=wrap;html=1;align=center;" parent="1" vertex="1">
          <mxGeometry x="82" y="10" width="80" height="30" as="geometry" />
        </mxCell>
        <mxCell id="bttaewJcuUnb8oC3wjJb-16" value="hometown" style="ellipse;whiteSpace=wrap;html=1;align=center;" parent="1" vertex="1">
          <mxGeometry x="110" y="48" width="70" height="30" as="geometry" />
        </mxCell>
        <mxCell id="bttaewJcuUnb8oC3wjJb-17" value="gender" style="ellipse;whiteSpace=wrap;html=1;align=center;" parent="1" vertex="1">
          <mxGeometry x="5" y="157" width="65" height="30" as="geometry" />
        </mxCell>
        <mxCell id="bttaewJcuUnb8oC3wjJb-18" value="password" style="ellipse;whiteSpace=wrap;html=1;align=center;" parent="1" vertex="1">
          <mxGeometry x="6" y="192" width="64" height="30" as="geometry" />
        </mxCell>
        <mxCell id="bttaewJcuUnb8oC3wjJb-19" value="" style="endArrow=none;html=1;rounded=0;exitX=1;exitY=0.5;exitDx=0;exitDy=0;entryX=0;entryY=0.5;entryDx=0;entryDy=0;" parent="1" source="bttaewJcuUnb8oC3wjJb-3" target="bttaewJcuUnb8oC3wjJb-2" edge="1">
          <mxGeometry relative="1" as="geometry">
            <mxPoint x="110" y="180" as="sourcePoint" />
            <mxPoint x="160" y="145" as="targetPoint" />
          </mxGeometry>
        </mxCell>
        <mxCell id="bttaewJcuUnb8oC3wjJb-22" value="" style="endArrow=none;html=1;rounded=0;strokeColor=default;exitX=0;exitY=1;exitDx=0;exitDy=0;entryX=0.37;entryY=0;entryDx=0;entryDy=0;entryPerimeter=0;" parent="1" source="bttaewJcuUnb8oC3wjJb-16" target="bttaewJcuUnb8oC3wjJb-2" edge="1">
          <mxGeometry relative="1" as="geometry">
            <mxPoint x="260" y="280" as="sourcePoint" />
            <mxPoint x="420" y="280" as="targetPoint" />
          </mxGeometry>
        </mxCell>
        <mxCell id="bttaewJcuUnb8oC3wjJb-23" value="" style="endArrow=none;html=1;rounded=0;strokeColor=default;exitX=0.05;exitY=0.733;exitDx=0;exitDy=0;entryX=0.25;entryY=0;entryDx=0;entryDy=0;exitPerimeter=0;" parent="1" source="bttaewJcuUnb8oC3wjJb-15" target="bttaewJcuUnb8oC3wjJb-2" edge="1">
          <mxGeometry relative="1" as="geometry">
            <mxPoint x="260" y="280" as="sourcePoint" />
            <mxPoint x="420" y="280" as="targetPoint" />
          </mxGeometry>
        </mxCell>
        <mxCell id="bttaewJcuUnb8oC3wjJb-24" value="" style="endArrow=none;html=1;rounded=0;strokeColor=default;exitX=1;exitY=1;exitDx=0;exitDy=0;entryX=0.11;entryY=0;entryDx=0;entryDy=0;entryPerimeter=0;" parent="1" source="bttaewJcuUnb8oC3wjJb-12" target="bttaewJcuUnb8oC3wjJb-2" edge="1">
          <mxGeometry relative="1" as="geometry">
            <mxPoint x="140" y="90" as="sourcePoint" />
            <mxPoint x="300" y="90" as="targetPoint" />
          </mxGeometry>
        </mxCell>
        <mxCell id="bttaewJcuUnb8oC3wjJb-25" value="" style="endArrow=none;html=1;rounded=0;strokeColor=default;exitX=1;exitY=1;exitDx=0;exitDy=0;entryX=0;entryY=0;entryDx=0;entryDy=0;" parent="1" source="bttaewJcuUnb8oC3wjJb-11" target="bttaewJcuUnb8oC3wjJb-2" edge="1">
          <mxGeometry relative="1" as="geometry">
            <mxPoint x="260" y="280" as="sourcePoint" />
            <mxPoint x="420" y="280" as="targetPoint" />
          </mxGeometry>
        </mxCell>
        <mxCell id="bttaewJcuUnb8oC3wjJb-26" value="" style="endArrow=none;html=1;rounded=0;strokeColor=default;exitX=1;exitY=1;exitDx=0;exitDy=0;entryX=0;entryY=0.25;entryDx=0;entryDy=0;" parent="1" source="bttaewJcuUnb8oC3wjJb-4" target="bttaewJcuUnb8oC3wjJb-2" edge="1">
          <mxGeometry relative="1" as="geometry">
            <mxPoint x="150" y="240" as="sourcePoint" />
            <mxPoint x="310" y="240" as="targetPoint" />
          </mxGeometry>
        </mxCell>
        <mxCell id="bttaewJcuUnb8oC3wjJb-28" value="" style="endArrow=none;html=1;rounded=0;strokeColor=default;exitX=1;exitY=0;exitDx=0;exitDy=0;entryX=0;entryY=1;entryDx=0;entryDy=0;" parent="1" source="bttaewJcuUnb8oC3wjJb-18" target="bttaewJcuUnb8oC3wjJb-2" edge="1">
          <mxGeometry relative="1" as="geometry">
            <mxPoint x="274" y="170" as="sourcePoint" />
            <mxPoint x="434" y="170" as="targetPoint" />
          </mxGeometry>
        </mxCell>
        <mxCell id="bttaewJcuUnb8oC3wjJb-29" value="" style="endArrow=none;html=1;rounded=0;strokeColor=default;exitX=1;exitY=0;exitDx=0;exitDy=0;entryX=0;entryY=0.75;entryDx=0;entryDy=0;" parent="1" source="bttaewJcuUnb8oC3wjJb-17" target="bttaewJcuUnb8oC3wjJb-2" edge="1">
          <mxGeometry relative="1" as="geometry">
            <mxPoint x="290" y="69" as="sourcePoint" />
            <mxPoint x="450" y="69" as="targetPoint" />
          </mxGeometry>
        </mxCell>
        <mxCell id="bttaewJcuUnb8oC3wjJb-30" value="HasAlbums" style="rhombus;whiteSpace=wrap;html=1;" parent="1" vertex="1">
          <mxGeometry x="180" y="89" width="100" height="38" as="geometry" />
        </mxCell>
        <mxCell id="bttaewJcuUnb8oC3wjJb-31" value="" style="endArrow=none;html=1;rounded=0;strokeColor=default;exitX=0.5;exitY=1;exitDx=0;exitDy=0;entryX=0.25;entryY=0;entryDx=0;entryDy=0;" parent="1" edge="1" target="bttaewJcuUnb8oC3wjJb-37" source="YIt-fGJrimNfhjcuC89_-7">
          <mxGeometry relative="1" as="geometry">
            <mxPoint x="510" y="77" as="sourcePoint" />
            <mxPoint x="670" y="77" as="targetPoint" />
          </mxGeometry>
        </mxCell>
        <mxCell id="bttaewJcuUnb8oC3wjJb-32" value="" style="endArrow=none;html=1;rounded=0;strokeColor=default;exitX=1;exitY=1;exitDx=0;exitDy=0;entryX=0;entryY=0;entryDx=0;entryDy=0;" parent="1" edge="1" target="bttaewJcuUnb8oC3wjJb-37" source="YIt-fGJrimNfhjcuC89_-5">
          <mxGeometry relative="1" as="geometry">
            <mxPoint x="260" y="280" as="sourcePoint" />
            <mxPoint x="420" y="280" as="targetPoint" />
          </mxGeometry>
        </mxCell>
        <mxCell id="bttaewJcuUnb8oC3wjJb-33" value="" style="endArrow=none;html=1;rounded=0;strokeColor=default;entryX=0.388;entryY=0.886;entryDx=0;entryDy=0;exitX=0.9;exitY=-0.025;exitDx=0;exitDy=0;exitPerimeter=0;entryPerimeter=0;" parent="1" edge="1" target="YIt-fGJrimNfhjcuC89_-1" source="bttaewJcuUnb8oC3wjJb-2">
          <mxGeometry relative="1" as="geometry">
            <mxPoint x="200" y="150" as="sourcePoint" />
            <mxPoint x="420" y="280" as="targetPoint" />
          </mxGeometry>
        </mxCell>
        <mxCell id="bttaewJcuUnb8oC3wjJb-34" value="" style="endArrow=none;html=1;rounded=0;strokeColor=default;exitX=0.65;exitY=0.025;exitDx=0;exitDy=0;exitPerimeter=0;entryX=0.113;entryY=0.659;entryDx=0;entryDy=0;entryPerimeter=0;" parent="1" edge="1" target="YIt-fGJrimNfhjcuC89_-1" source="bttaewJcuUnb8oC3wjJb-2">
          <mxGeometry relative="1" as="geometry">
            <mxPoint x="265" y="120" as="sourcePoint" />
            <mxPoint x="220" y="80" as="targetPoint" />
          </mxGeometry>
        </mxCell>
        <mxCell id="bttaewJcuUnb8oC3wjJb-36" value="" style="endArrow=none;html=1;rounded=0;strokeColor=default;exitX=1;exitY=0.5;exitDx=0;exitDy=0;entryX=0;entryY=0.5;entryDx=0;entryDy=0;" parent="1" source="bttaewJcuUnb8oC3wjJb-2" target="bttaewJcuUnb8oC3wjJb-30" edge="1">
          <mxGeometry relative="1" as="geometry">
            <mxPoint x="274" y="230" as="sourcePoint" />
            <mxPoint x="434" y="230" as="targetPoint" />
          </mxGeometry>
        </mxCell>
        <mxCell id="bttaewJcuUnb8oC3wjJb-37" value="Albums" style="whiteSpace=wrap;html=1;align=center;" parent="1" vertex="1">
          <mxGeometry x="326.5" y="94" width="70" height="28" as="geometry" />
        </mxCell>
        <mxCell id="YIt-fGJrimNfhjcuC89_-1" value="Friends" style="rhombus;whiteSpace=wrap;html=1;" vertex="1" parent="1">
          <mxGeometry x="190" y="36" width="80" height="42" as="geometry" />
        </mxCell>
        <mxCell id="YIt-fGJrimNfhjcuC89_-4" value="" style="endArrow=classic;html=1;rounded=0;entryX=1;entryY=0.5;entryDx=0;entryDy=0;exitX=0;exitY=0.5;exitDx=0;exitDy=0;strokeWidth=2;" edge="1" parent="1" source="bttaewJcuUnb8oC3wjJb-37" target="bttaewJcuUnb8oC3wjJb-30">
          <mxGeometry width="50" height="50" relative="1" as="geometry">
            <mxPoint x="310" y="200" as="sourcePoint" />
            <mxPoint x="360" y="150" as="targetPoint" />
          </mxGeometry>
        </mxCell>
        <mxCell id="YIt-fGJrimNfhjcuC89_-5" value="albumID" style="ellipse;whiteSpace=wrap;html=1;align=center;fontStyle=4;" vertex="1" parent="1">
          <mxGeometry x="251.88" y="70" width="65" height="26" as="geometry" />
        </mxCell>
        <mxCell id="YIt-fGJrimNfhjcuC89_-7" value="name" style="ellipse;whiteSpace=wrap;html=1;align=center;" vertex="1" parent="1">
          <mxGeometry x="290" y="40" width="50" height="26" as="geometry" />
        </mxCell>
        <mxCell id="YIt-fGJrimNfhjcuC89_-8" value="dateofcreation" style="ellipse;whiteSpace=wrap;html=1;align=center;" vertex="1" parent="1">
          <mxGeometry x="266.5" y="2" width="92.5" height="33" as="geometry" />
        </mxCell>
        <mxCell id="YIt-fGJrimNfhjcuC89_-9" value="" style="endArrow=none;html=1;rounded=0;strokeColor=default;exitX=1;exitY=1;exitDx=0;exitDy=0;entryX=0.5;entryY=0;entryDx=0;entryDy=0;" edge="1" parent="1" source="YIt-fGJrimNfhjcuC89_-8" target="bttaewJcuUnb8oC3wjJb-37">
          <mxGeometry relative="1" as="geometry">
            <mxPoint x="459.99873734152925" y="57.80660171779819" as="sourcePoint" />
            <mxPoint x="492.85596371747806" y="104.2" as="targetPoint" />
          </mxGeometry>
        </mxCell>
        <mxCell id="YIt-fGJrimNfhjcuC89_-10" value="HasPhotos" style="rhombus;whiteSpace=wrap;html=1;" vertex="1" parent="1">
          <mxGeometry x="316.88" y="134" width="90" height="40" as="geometry" />
        </mxCell>
        <mxCell id="YIt-fGJrimNfhjcuC89_-11" value="" style="endArrow=none;html=1;rounded=0;strokeWidth=1;exitX=1;exitY=0.25;exitDx=0;exitDy=0;entryX=0;entryY=1;entryDx=0;entryDy=0;" edge="1" parent="1" source="YIt-fGJrimNfhjcuC89_-16" target="YIt-fGJrimNfhjcuC89_-17">
          <mxGeometry relative="1" as="geometry">
            <mxPoint x="90" y="310" as="sourcePoint" />
            <mxPoint x="250" y="310" as="targetPoint" />
          </mxGeometry>
        </mxCell>
        <mxCell id="YIt-fGJrimNfhjcuC89_-12" value="" style="endArrow=none;html=1;rounded=0;strokeWidth=1;entryX=0;entryY=0;entryDx=0;entryDy=0;exitX=1;exitY=1;exitDx=0;exitDy=0;" edge="1" parent="1" source="YIt-fGJrimNfhjcuC89_-20" target="YIt-fGJrimNfhjcuC89_-16">
          <mxGeometry relative="1" as="geometry">
            <mxPoint x="310" y="190" as="sourcePoint" />
            <mxPoint x="370" y="260" as="targetPoint" />
          </mxGeometry>
        </mxCell>
        <mxCell id="YIt-fGJrimNfhjcuC89_-13" value="" style="endArrow=none;html=1;rounded=0;strokeWidth=1;exitX=1;exitY=0.75;exitDx=0;exitDy=0;entryX=0;entryY=0;entryDx=0;entryDy=0;" edge="1" parent="1" source="bttaewJcuUnb8oC3wjJb-2" target="YIt-fGJrimNfhjcuC89_-20">
          <mxGeometry relative="1" as="geometry">
            <mxPoint x="90" y="211.5" as="sourcePoint" />
            <mxPoint x="250" y="211.5" as="targetPoint" />
          </mxGeometry>
        </mxCell>
        <mxCell id="YIt-fGJrimNfhjcuC89_-14" value="" style="endArrow=none;html=1;rounded=0;strokeWidth=1;exitX=0.5;exitY=1;exitDx=0;exitDy=0;entryX=0.5;entryY=0;entryDx=0;entryDy=0;" edge="1" parent="1" source="bttaewJcuUnb8oC3wjJb-37" target="YIt-fGJrimNfhjcuC89_-10">
          <mxGeometry relative="1" as="geometry">
            <mxPoint x="460" y="157" as="sourcePoint" />
            <mxPoint x="620" y="157" as="targetPoint" />
          </mxGeometry>
        </mxCell>
        <mxCell id="YIt-fGJrimNfhjcuC89_-15" value="" style="endArrow=classic;html=1;rounded=0;entryX=0.5;entryY=1;entryDx=0;entryDy=0;strokeWidth=2;exitX=0.5;exitY=0;exitDx=0;exitDy=0;" edge="1" parent="1" source="YIt-fGJrimNfhjcuC89_-16" target="YIt-fGJrimNfhjcuC89_-10">
          <mxGeometry width="50" height="50" relative="1" as="geometry">
            <mxPoint x="440" y="280" as="sourcePoint" />
            <mxPoint x="390" y="285" as="targetPoint" />
          </mxGeometry>
        </mxCell>
        <mxCell id="YIt-fGJrimNfhjcuC89_-16" value="Photos" style="whiteSpace=wrap;html=1;align=center;" vertex="1" parent="1">
          <mxGeometry x="313.88" y="194" width="60" height="30" as="geometry" />
        </mxCell>
        <mxCell id="YIt-fGJrimNfhjcuC89_-17" value="photoID" style="ellipse;whiteSpace=wrap;html=1;align=center;fontStyle=4;" vertex="1" parent="1">
          <mxGeometry x="381" y="164" width="65" height="30" as="geometry" />
        </mxCell>
        <mxCell id="YIt-fGJrimNfhjcuC89_-18" value="caption" style="ellipse;whiteSpace=wrap;html=1;align=center;" vertex="1" parent="1">
          <mxGeometry x="391.5" y="202.75" width="60" height="30" as="geometry" />
        </mxCell>
        <mxCell id="YIt-fGJrimNfhjcuC89_-19" value="data" style="ellipse;whiteSpace=wrap;html=1;align=center;" vertex="1" parent="1">
          <mxGeometry x="395" y="239.5" width="45" height="30.5" as="geometry" />
        </mxCell>
        <mxCell id="YIt-fGJrimNfhjcuC89_-20" value="LikesPhoto" style="rhombus;whiteSpace=wrap;html=1;" vertex="1" parent="1">
          <mxGeometry x="220" y="133" width="96.88" height="33" as="geometry" />
        </mxCell>
        <mxCell id="YIt-fGJrimNfhjcuC89_-24" value="HasTag" style="rhombus;whiteSpace=wrap;html=1;" vertex="1" parent="1">
          <mxGeometry x="326.5" y="235.5" width="65" height="34" as="geometry" />
        </mxCell>
        <mxCell id="YIt-fGJrimNfhjcuC89_-26" value="" style="endArrow=none;html=1;rounded=0;strokeWidth=1;exitX=1;exitY=0.5;exitDx=0;exitDy=0;entryX=0;entryY=0.5;entryDx=0;entryDy=0;" edge="1" parent="1" source="YIt-fGJrimNfhjcuC89_-16" target="YIt-fGJrimNfhjcuC89_-18">
          <mxGeometry relative="1" as="geometry">
            <mxPoint x="400" y="228.75" as="sourcePoint" />
            <mxPoint x="420" y="212" as="targetPoint" />
          </mxGeometry>
        </mxCell>
        <mxCell id="YIt-fGJrimNfhjcuC89_-27" value="" style="endArrow=none;html=1;rounded=0;strokeWidth=1;exitX=1;exitY=0.75;exitDx=0;exitDy=0;entryX=0;entryY=0;entryDx=0;entryDy=0;" edge="1" parent="1" source="YIt-fGJrimNfhjcuC89_-16" target="YIt-fGJrimNfhjcuC89_-19">
          <mxGeometry relative="1" as="geometry">
            <mxPoint x="400" y="237.5" as="sourcePoint" />
            <mxPoint x="422.5" y="250" as="targetPoint" />
          </mxGeometry>
        </mxCell>
        <mxCell id="YIt-fGJrimNfhjcuC89_-28" value="" style="endArrow=none;html=1;rounded=0;strokeWidth=1;exitX=0.5;exitY=1;exitDx=0;exitDy=0;entryX=0.5;entryY=0;entryDx=0;entryDy=0;" edge="1" parent="1" source="YIt-fGJrimNfhjcuC89_-16" target="YIt-fGJrimNfhjcuC89_-24">
          <mxGeometry relative="1" as="geometry">
            <mxPoint x="400" y="246.25" as="sourcePoint" />
            <mxPoint x="413.78679656440363" y="259.3933982822018" as="targetPoint" />
          </mxGeometry>
        </mxCell>
        <mxCell id="YIt-fGJrimNfhjcuC89_-30" value="" style="endArrow=none;html=1;rounded=0;strokeWidth=1;exitX=0;exitY=0.5;exitDx=0;exitDy=0;entryX=1;entryY=0.5;entryDx=0;entryDy=0;" edge="1" parent="1" source="YIt-fGJrimNfhjcuC89_-24" target="YIt-fGJrimNfhjcuC89_-31">
          <mxGeometry relative="1" as="geometry">
            <mxPoint x="370" y="310" as="sourcePoint" />
            <mxPoint x="300" y="280" as="targetPoint" />
          </mxGeometry>
        </mxCell>
        <mxCell id="YIt-fGJrimNfhjcuC89_-31" value="Tags" style="whiteSpace=wrap;html=1;align=center;" vertex="1" parent="1">
          <mxGeometry x="270" y="240" width="48.75" height="25" as="geometry" />
        </mxCell>
        <mxCell id="YIt-fGJrimNfhjcuC89_-33" value="tagname" style="ellipse;whiteSpace=wrap;html=1;align=center;fontStyle=4;" vertex="1" parent="1">
          <mxGeometry x="239.75" y="207" width="66.25" height="26" as="geometry" />
        </mxCell>
        <mxCell id="YIt-fGJrimNfhjcuC89_-34" value="" style="endArrow=none;html=1;rounded=0;strokeWidth=1;exitX=0.5;exitY=0;exitDx=0;exitDy=0;" edge="1" parent="1" source="YIt-fGJrimNfhjcuC89_-31" target="YIt-fGJrimNfhjcuC89_-33">
          <mxGeometry relative="1" as="geometry">
            <mxPoint x="284" y="250" as="sourcePoint" />
            <mxPoint x="337.5" y="235" as="targetPoint" />
          </mxGeometry>
        </mxCell>
        <mxCell id="YIt-fGJrimNfhjcuC89_-35" value="Comments" style="whiteSpace=wrap;html=1;align=center;" vertex="1" parent="1">
          <mxGeometry x="89" y="190" width="80" height="30" as="geometry" />
        </mxCell>
        <mxCell id="YIt-fGJrimNfhjcuC89_-37" value="commentID" style="ellipse;whiteSpace=wrap;html=1;align=center;fontStyle=4;" vertex="1" parent="1">
          <mxGeometry x="5" y="227" width="83" height="30" as="geometry" />
        </mxCell>
        <mxCell id="YIt-fGJrimNfhjcuC89_-39" value="text" style="ellipse;whiteSpace=wrap;html=1;align=center;" vertex="1" parent="1">
          <mxGeometry x="175" y="218" width="44" height="22" as="geometry" />
        </mxCell>
        <mxCell id="YIt-fGJrimNfhjcuC89_-40" value="commentdate" style="ellipse;whiteSpace=wrap;html=1;align=center;" vertex="1" parent="1">
          <mxGeometry x="89" y="233" width="92" height="30" as="geometry" />
        </mxCell>
        <mxCell id="YIt-fGJrimNfhjcuC89_-42" value="Writes" style="rhombus;whiteSpace=wrap;html=1;" vertex="1" parent="1">
          <mxGeometry x="97.28" y="133" width="63.44" height="33" as="geometry" />
        </mxCell>
        <mxCell id="YIt-fGJrimNfhjcuC89_-43" value="HasComment" style="rhombus;whiteSpace=wrap;html=1;" vertex="1" parent="1">
          <mxGeometry x="180" y="166" width="110.88" height="36.75" as="geometry" />
        </mxCell>
        <mxCell id="YIt-fGJrimNfhjcuC89_-44" value="" style="endArrow=none;html=1;rounded=0;strokeWidth=1;exitX=0.5;exitY=1;exitDx=0;exitDy=0;entryX=0.5;entryY=0;entryDx=0;entryDy=0;" edge="1" parent="1" source="bttaewJcuUnb8oC3wjJb-2" target="YIt-fGJrimNfhjcuC89_-42">
          <mxGeometry relative="1" as="geometry">
            <mxPoint x="178" y="135.5" as="sourcePoint" />
            <mxPoint x="254.22000000000003" y="151.25" as="targetPoint" />
          </mxGeometry>
        </mxCell>
        <mxCell id="YIt-fGJrimNfhjcuC89_-45" value="" style="endArrow=none;html=1;rounded=0;strokeWidth=1;exitX=1;exitY=0.5;exitDx=0;exitDy=0;entryX=0;entryY=0.5;entryDx=0;entryDy=0;" edge="1" parent="1" source="YIt-fGJrimNfhjcuC89_-43" target="YIt-fGJrimNfhjcuC89_-16">
          <mxGeometry relative="1" as="geometry">
            <mxPoint x="143" y="143" as="sourcePoint" />
            <mxPoint x="152.27999999999997" y="160" as="targetPoint" />
          </mxGeometry>
        </mxCell>
        <mxCell id="YIt-fGJrimNfhjcuC89_-46" value="" style="endArrow=classic;html=1;rounded=0;entryX=0.5;entryY=1;entryDx=0;entryDy=0;strokeWidth=2;exitX=0.5;exitY=0;exitDx=0;exitDy=0;" edge="1" parent="1" source="YIt-fGJrimNfhjcuC89_-35" target="YIt-fGJrimNfhjcuC89_-42">
          <mxGeometry width="50" height="50" relative="1" as="geometry">
            <mxPoint x="150.0000000000001" y="217" as="sourcePoint" />
            <mxPoint x="150.0000000000001" y="187" as="targetPoint" />
          </mxGeometry>
        </mxCell>
        <mxCell id="YIt-fGJrimNfhjcuC89_-47" value="" style="endArrow=classic;html=1;rounded=0;strokeWidth=2;exitX=1;exitY=0.5;exitDx=0;exitDy=0;entryX=0;entryY=1;entryDx=0;entryDy=0;" edge="1" parent="1" source="YIt-fGJrimNfhjcuC89_-35" target="YIt-fGJrimNfhjcuC89_-43">
          <mxGeometry width="50" height="50" relative="1" as="geometry">
            <mxPoint x="160.0000000000001" y="227" as="sourcePoint" />
            <mxPoint x="160.0000000000001" y="197" as="targetPoint" />
          </mxGeometry>
        </mxCell>
        <mxCell id="YIt-fGJrimNfhjcuC89_-50" value="" style="endArrow=none;html=1;rounded=0;strokeWidth=1;exitX=0;exitY=0.5;exitDx=0;exitDy=0;entryX=1;entryY=0;entryDx=0;entryDy=0;" edge="1" parent="1" source="YIt-fGJrimNfhjcuC89_-35" target="YIt-fGJrimNfhjcuC89_-37">
          <mxGeometry relative="1" as="geometry">
            <mxPoint x="100" y="270" as="sourcePoint" />
            <mxPoint x="90" y="250" as="targetPoint" />
          </mxGeometry>
        </mxCell>
        <mxCell id="YIt-fGJrimNfhjcuC89_-51" value="" style="endArrow=none;html=1;rounded=0;strokeWidth=1;exitX=1;exitY=0.75;exitDx=0;exitDy=0;entryX=0.068;entryY=0.233;entryDx=0;entryDy=0;entryPerimeter=0;" edge="1" parent="1" source="YIt-fGJrimNfhjcuC89_-35" target="YIt-fGJrimNfhjcuC89_-39">
          <mxGeometry relative="1" as="geometry">
            <mxPoint x="100" y="270" as="sourcePoint" />
            <mxPoint x="260" y="270" as="targetPoint" />
          </mxGeometry>
        </mxCell>
        <mxCell id="YIt-fGJrimNfhjcuC89_-52" value="" style="endArrow=none;html=1;rounded=0;strokeWidth=1;exitX=0.5;exitY=1;exitDx=0;exitDy=0;entryX=0.435;entryY=0;entryDx=0;entryDy=0;entryPerimeter=0;" edge="1" parent="1" source="YIt-fGJrimNfhjcuC89_-35" target="YIt-fGJrimNfhjcuC89_-40">
          <mxGeometry relative="1" as="geometry">
            <mxPoint x="100" y="270" as="sourcePoint" />
            <mxPoint x="260" y="270" as="targetPoint" />
          </mxGeometry>
        </mxCell>
      </root>
    </mxGraphModel>
  </diagram>
</mxfile>
